M48
;GenerationSoftware,Autodesk,EAGLE,9.6.2*%
;CreationDate,2021-07-14T17:40:56Z*%
FMAT,2
ICI,OFF
METRIC,TZ,000.000
T5C0.350
T4C0.813
T3C1.000
T2C1.016
T1C1.194
%
G90
M71
T1
X46990Y20280
X46990Y15280
X11430Y20280
X11430Y15280
X46950Y5080
X41950Y5080
T2
X20574Y24130
X20574Y21590
X37084Y29210
X37084Y26670
X37084Y24130
X37084Y21590
X52070Y24130
X52070Y26670
X52070Y29210
X52070Y31750
X52070Y34290
X52070Y36830
X52070Y41910
X52070Y44450
X52070Y46990
X52070Y49530
X52070Y52070
X52070Y54610
X3810Y54610
X3810Y52070
X3810Y49530
X3810Y46990
X3810Y44450
X3810Y41910
X3810Y39370
X3810Y36830
X3810Y33020
X3810Y30480
X3810Y27940
X3810Y25400
X3810Y22860
X3810Y20320
X3810Y17780
X3810Y15240
X3810Y12700
X3810Y10160
X52070Y21590
X52070Y19050
X20574Y26670
X20574Y29210
X14478Y9652
X17018Y9652
X19558Y9652
X49276Y57150
X49276Y54610
X49276Y52070
X49276Y49530
X49276Y46990
X49276Y44450
X49276Y41910
X49276Y39370
X11938Y5080
X14478Y5080
X17018Y5080
X19558Y5080
X2591Y7341
X37592Y42179
X35052Y42179
X17272Y16510
X17272Y19050
X17272Y21590
X2591Y2819
X17272Y26670
X17272Y29210
X40386Y16510
X40386Y19050
X40386Y21590
X40386Y24130
X40386Y26670
X40386Y29210
X32512Y42179
X17272Y24130
X42164Y54610
X44704Y54610
X42164Y52070
X44704Y52070
X42164Y49530
X44704Y49530
X42164Y46990
X44704Y46990
X42164Y44450
X44704Y44450
X42164Y41910
X44704Y41910
X52070Y5080
X52070Y7620
X9093Y2819
X9093Y7341
T3
X20320Y54991
X17780Y54991
X15240Y54991
X12700Y54991
X7620Y54991
X10160Y54991
T4
X24130Y8890
X24130Y11430
X24130Y13970
X24130Y16510
X24130Y19050
X24130Y21590
X24130Y24130
X24130Y26670
X31750Y19050
X31750Y21590
X31750Y16510
X31750Y13970
X31750Y26670
X31750Y24130
X31750Y11430
X31750Y8890
X36068Y3048
X36068Y5588
X38608Y56388
X36068Y56388
X34290Y56388
X31750Y56388
T5
X11938Y11430
X13462Y8128
X38100Y35306
X35560Y35306
X26924Y39116
X22352Y40640
X34290Y35814
X39370Y40640
X23876Y46990
X28194Y47752
X28448Y51054
X33528Y36830
M30