G04 EAGLE Gerber RS-274X export*
G75*
%MOMM*%
%FSLAX34Y34*%
%LPD*%
%INSilkscreen Bottom*%
%IPPOS*%
%AMOC8*
5,1,8,0,0,1.08239X$1,22.5*%
G01*
%ADD10C,0.152400*%


D10*
X319249Y469138D02*
X319249Y457398D01*
X319247Y457265D01*
X319241Y457133D01*
X319231Y457001D01*
X319218Y456869D01*
X319200Y456737D01*
X319179Y456607D01*
X319154Y456476D01*
X319125Y456347D01*
X319092Y456219D01*
X319056Y456091D01*
X319016Y455965D01*
X318972Y455840D01*
X318924Y455716D01*
X318873Y455594D01*
X318818Y455473D01*
X318760Y455354D01*
X318698Y455236D01*
X318633Y455121D01*
X318564Y455007D01*
X318493Y454896D01*
X318417Y454787D01*
X318339Y454680D01*
X318258Y454575D01*
X318173Y454473D01*
X318086Y454373D01*
X317996Y454276D01*
X317903Y454181D01*
X317807Y454090D01*
X317709Y454001D01*
X317608Y453915D01*
X317504Y453832D01*
X317398Y453752D01*
X317290Y453676D01*
X317180Y453602D01*
X317067Y453532D01*
X316953Y453465D01*
X316836Y453402D01*
X316718Y453342D01*
X316598Y453285D01*
X316476Y453232D01*
X316353Y453183D01*
X316229Y453137D01*
X316103Y453095D01*
X315976Y453057D01*
X315848Y453022D01*
X315719Y452991D01*
X315590Y452964D01*
X315459Y452941D01*
X315328Y452921D01*
X315196Y452906D01*
X315064Y452894D01*
X314932Y452886D01*
X314799Y452882D01*
X314667Y452882D01*
X314534Y452886D01*
X314402Y452894D01*
X314270Y452906D01*
X314138Y452921D01*
X314007Y452941D01*
X313876Y452964D01*
X313747Y452991D01*
X313618Y453022D01*
X313490Y453057D01*
X313363Y453095D01*
X313237Y453137D01*
X313113Y453183D01*
X312990Y453232D01*
X312868Y453285D01*
X312748Y453342D01*
X312630Y453402D01*
X312513Y453465D01*
X312399Y453532D01*
X312286Y453602D01*
X312176Y453676D01*
X312068Y453752D01*
X311962Y453832D01*
X311858Y453915D01*
X311757Y454001D01*
X311659Y454090D01*
X311563Y454181D01*
X311470Y454276D01*
X311380Y454373D01*
X311293Y454473D01*
X311208Y454575D01*
X311127Y454680D01*
X311049Y454787D01*
X310973Y454896D01*
X310902Y455007D01*
X310833Y455121D01*
X310768Y455236D01*
X310706Y455354D01*
X310648Y455473D01*
X310593Y455594D01*
X310542Y455716D01*
X310494Y455840D01*
X310450Y455965D01*
X310410Y456091D01*
X310374Y456219D01*
X310341Y456347D01*
X310312Y456476D01*
X310287Y456607D01*
X310266Y456737D01*
X310248Y456869D01*
X310235Y457001D01*
X310225Y457133D01*
X310219Y457265D01*
X310217Y457398D01*
X310218Y457398D02*
X310218Y469138D01*
X302575Y469138D02*
X302575Y452882D01*
X293544Y452882D02*
X302575Y469138D01*
X293544Y469138D02*
X293544Y452882D01*
X285034Y452882D02*
X285034Y469138D01*
X286840Y452882D02*
X283228Y452882D01*
X283228Y469138D02*
X286840Y469138D01*
X273571Y469138D02*
X273571Y452882D01*
X278087Y469138D02*
X269055Y469138D01*
X262947Y452882D02*
X255722Y452882D01*
X262947Y452882D02*
X262947Y469138D01*
X255722Y469138D01*
X257528Y461913D02*
X262947Y461913D01*
X246377Y452882D02*
X242765Y452882D01*
X246377Y452882D02*
X246495Y452884D01*
X246613Y452890D01*
X246731Y452899D01*
X246848Y452913D01*
X246965Y452930D01*
X247082Y452951D01*
X247197Y452976D01*
X247312Y453005D01*
X247426Y453038D01*
X247538Y453074D01*
X247649Y453114D01*
X247759Y453157D01*
X247868Y453204D01*
X247975Y453254D01*
X248080Y453309D01*
X248183Y453366D01*
X248284Y453427D01*
X248384Y453491D01*
X248481Y453558D01*
X248576Y453628D01*
X248668Y453702D01*
X248759Y453778D01*
X248846Y453858D01*
X248931Y453940D01*
X249013Y454025D01*
X249093Y454112D01*
X249169Y454203D01*
X249243Y454295D01*
X249313Y454390D01*
X249380Y454487D01*
X249444Y454587D01*
X249505Y454688D01*
X249562Y454791D01*
X249617Y454896D01*
X249667Y455003D01*
X249714Y455112D01*
X249757Y455222D01*
X249797Y455333D01*
X249833Y455445D01*
X249866Y455559D01*
X249895Y455674D01*
X249920Y455789D01*
X249941Y455906D01*
X249958Y456023D01*
X249972Y456140D01*
X249981Y456258D01*
X249987Y456376D01*
X249989Y456494D01*
X249990Y456494D02*
X249990Y465526D01*
X249989Y465526D02*
X249987Y465644D01*
X249981Y465762D01*
X249972Y465880D01*
X249958Y465997D01*
X249941Y466114D01*
X249920Y466231D01*
X249895Y466346D01*
X249866Y466461D01*
X249833Y466575D01*
X249797Y466687D01*
X249757Y466798D01*
X249714Y466908D01*
X249667Y467017D01*
X249617Y467124D01*
X249562Y467229D01*
X249505Y467332D01*
X249444Y467433D01*
X249380Y467533D01*
X249313Y467630D01*
X249243Y467725D01*
X249169Y467817D01*
X249093Y467908D01*
X249013Y467995D01*
X248931Y468080D01*
X248846Y468162D01*
X248759Y468242D01*
X248668Y468318D01*
X248576Y468392D01*
X248481Y468462D01*
X248384Y468529D01*
X248284Y468593D01*
X248183Y468654D01*
X248080Y468711D01*
X247975Y468766D01*
X247868Y468816D01*
X247759Y468863D01*
X247649Y468906D01*
X247538Y468946D01*
X247426Y468982D01*
X247312Y469015D01*
X247197Y469044D01*
X247082Y469069D01*
X246965Y469090D01*
X246848Y469107D01*
X246731Y469121D01*
X246613Y469130D01*
X246495Y469136D01*
X246377Y469138D01*
X242765Y469138D01*
X304695Y442468D02*
X304695Y426212D01*
X309210Y442468D02*
X300179Y442468D01*
X291672Y432534D02*
X287608Y432534D01*
X291672Y432534D02*
X291784Y432532D01*
X291895Y432526D01*
X292006Y432516D01*
X292117Y432503D01*
X292227Y432485D01*
X292336Y432463D01*
X292445Y432438D01*
X292553Y432409D01*
X292659Y432376D01*
X292765Y432339D01*
X292869Y432299D01*
X292971Y432255D01*
X293072Y432207D01*
X293171Y432156D01*
X293269Y432101D01*
X293364Y432043D01*
X293457Y431982D01*
X293548Y431917D01*
X293637Y431849D01*
X293723Y431778D01*
X293806Y431705D01*
X293887Y431628D01*
X293966Y431548D01*
X294041Y431466D01*
X294113Y431381D01*
X294183Y431294D01*
X294249Y431204D01*
X294312Y431112D01*
X294372Y431017D01*
X294428Y430921D01*
X294481Y430823D01*
X294530Y430723D01*
X294576Y430621D01*
X294618Y430518D01*
X294657Y430413D01*
X294692Y430307D01*
X294723Y430200D01*
X294750Y430092D01*
X294774Y429983D01*
X294793Y429873D01*
X294809Y429763D01*
X294821Y429652D01*
X294829Y429540D01*
X294833Y429429D01*
X294833Y429317D01*
X294829Y429206D01*
X294821Y429094D01*
X294809Y428983D01*
X294793Y428873D01*
X294774Y428763D01*
X294750Y428654D01*
X294723Y428546D01*
X294692Y428439D01*
X294657Y428333D01*
X294618Y428228D01*
X294576Y428125D01*
X294530Y428023D01*
X294481Y427923D01*
X294428Y427825D01*
X294372Y427729D01*
X294312Y427634D01*
X294249Y427542D01*
X294183Y427452D01*
X294113Y427365D01*
X294041Y427280D01*
X293966Y427198D01*
X293887Y427118D01*
X293806Y427041D01*
X293723Y426968D01*
X293637Y426897D01*
X293548Y426829D01*
X293457Y426764D01*
X293364Y426703D01*
X293269Y426645D01*
X293171Y426590D01*
X293072Y426539D01*
X292971Y426491D01*
X292869Y426447D01*
X292765Y426407D01*
X292659Y426370D01*
X292553Y426337D01*
X292445Y426308D01*
X292336Y426283D01*
X292227Y426261D01*
X292117Y426243D01*
X292006Y426230D01*
X291895Y426220D01*
X291784Y426214D01*
X291672Y426212D01*
X287608Y426212D01*
X287608Y434340D01*
X287609Y434340D02*
X287611Y434441D01*
X287617Y434542D01*
X287626Y434643D01*
X287639Y434744D01*
X287656Y434844D01*
X287677Y434943D01*
X287701Y435041D01*
X287729Y435138D01*
X287761Y435235D01*
X287796Y435330D01*
X287835Y435423D01*
X287877Y435515D01*
X287923Y435606D01*
X287972Y435695D01*
X288024Y435781D01*
X288080Y435866D01*
X288138Y435949D01*
X288200Y436029D01*
X288265Y436107D01*
X288332Y436183D01*
X288402Y436256D01*
X288475Y436326D01*
X288551Y436393D01*
X288629Y436458D01*
X288709Y436520D01*
X288792Y436578D01*
X288877Y436634D01*
X288964Y436686D01*
X289052Y436735D01*
X289143Y436781D01*
X289235Y436823D01*
X289328Y436862D01*
X289423Y436897D01*
X289520Y436929D01*
X289617Y436957D01*
X289715Y436981D01*
X289814Y437002D01*
X289914Y437019D01*
X290015Y437032D01*
X290116Y437041D01*
X290217Y437047D01*
X290318Y437049D01*
X293930Y437049D01*
X280455Y442468D02*
X280455Y428921D01*
X280453Y428820D01*
X280447Y428719D01*
X280438Y428618D01*
X280425Y428517D01*
X280408Y428417D01*
X280387Y428318D01*
X280363Y428220D01*
X280335Y428123D01*
X280303Y428026D01*
X280268Y427931D01*
X280229Y427838D01*
X280187Y427746D01*
X280141Y427655D01*
X280092Y427567D01*
X280040Y427480D01*
X279984Y427395D01*
X279926Y427312D01*
X279864Y427232D01*
X279799Y427154D01*
X279732Y427078D01*
X279662Y427005D01*
X279589Y426935D01*
X279513Y426868D01*
X279435Y426803D01*
X279355Y426741D01*
X279272Y426683D01*
X279187Y426627D01*
X279101Y426575D01*
X279012Y426526D01*
X278921Y426480D01*
X278829Y426438D01*
X278736Y426399D01*
X278641Y426364D01*
X278544Y426332D01*
X278447Y426304D01*
X278349Y426280D01*
X278250Y426259D01*
X278150Y426242D01*
X278049Y426229D01*
X277948Y426220D01*
X277847Y426214D01*
X277746Y426212D01*
X272118Y428921D02*
X272118Y442468D01*
X272118Y428921D02*
X272116Y428820D01*
X272110Y428719D01*
X272101Y428618D01*
X272088Y428517D01*
X272071Y428417D01*
X272050Y428318D01*
X272026Y428220D01*
X271998Y428123D01*
X271966Y428026D01*
X271931Y427931D01*
X271892Y427838D01*
X271850Y427746D01*
X271804Y427655D01*
X271755Y427567D01*
X271703Y427480D01*
X271647Y427395D01*
X271589Y427312D01*
X271527Y427232D01*
X271462Y427154D01*
X271395Y427078D01*
X271325Y427005D01*
X271252Y426935D01*
X271176Y426868D01*
X271098Y426803D01*
X271018Y426741D01*
X270935Y426683D01*
X270850Y426627D01*
X270764Y426575D01*
X270675Y426526D01*
X270584Y426480D01*
X270492Y426438D01*
X270399Y426399D01*
X270304Y426364D01*
X270207Y426332D01*
X270110Y426304D01*
X270012Y426280D01*
X269913Y426259D01*
X269813Y426242D01*
X269712Y426229D01*
X269611Y426220D01*
X269510Y426214D01*
X269409Y426212D01*
X261309Y426212D02*
X256794Y426212D01*
X261309Y426212D02*
X261410Y426214D01*
X261511Y426220D01*
X261612Y426229D01*
X261713Y426242D01*
X261813Y426259D01*
X261912Y426280D01*
X262010Y426304D01*
X262107Y426332D01*
X262204Y426364D01*
X262299Y426399D01*
X262392Y426438D01*
X262484Y426480D01*
X262575Y426526D01*
X262664Y426575D01*
X262750Y426627D01*
X262835Y426683D01*
X262918Y426741D01*
X262998Y426803D01*
X263076Y426868D01*
X263152Y426935D01*
X263225Y427005D01*
X263295Y427078D01*
X263362Y427154D01*
X263427Y427232D01*
X263489Y427312D01*
X263547Y427395D01*
X263603Y427480D01*
X263655Y427567D01*
X263704Y427655D01*
X263750Y427746D01*
X263792Y427838D01*
X263831Y427931D01*
X263866Y428026D01*
X263898Y428123D01*
X263926Y428220D01*
X263950Y428318D01*
X263971Y428417D01*
X263988Y428517D01*
X264001Y428618D01*
X264010Y428719D01*
X264016Y428820D01*
X264018Y428921D01*
X264018Y433437D01*
X264016Y433556D01*
X264010Y433676D01*
X264000Y433795D01*
X263986Y433913D01*
X263969Y434032D01*
X263947Y434149D01*
X263922Y434266D01*
X263892Y434381D01*
X263859Y434496D01*
X263822Y434610D01*
X263782Y434722D01*
X263737Y434833D01*
X263689Y434942D01*
X263638Y435050D01*
X263583Y435156D01*
X263524Y435260D01*
X263462Y435362D01*
X263397Y435462D01*
X263328Y435560D01*
X263256Y435656D01*
X263181Y435749D01*
X263104Y435839D01*
X263023Y435927D01*
X262939Y436012D01*
X262852Y436094D01*
X262763Y436174D01*
X262671Y436250D01*
X262577Y436324D01*
X262480Y436394D01*
X262382Y436461D01*
X262281Y436525D01*
X262177Y436585D01*
X262072Y436642D01*
X261965Y436695D01*
X261857Y436745D01*
X261747Y436791D01*
X261635Y436833D01*
X261522Y436872D01*
X261408Y436907D01*
X261293Y436938D01*
X261176Y436966D01*
X261059Y436989D01*
X260942Y437009D01*
X260823Y437025D01*
X260704Y437037D01*
X260585Y437045D01*
X260466Y437049D01*
X260346Y437049D01*
X260227Y437045D01*
X260108Y437037D01*
X259989Y437025D01*
X259870Y437009D01*
X259753Y436989D01*
X259636Y436966D01*
X259519Y436938D01*
X259404Y436907D01*
X259290Y436872D01*
X259177Y436833D01*
X259065Y436791D01*
X258955Y436745D01*
X258847Y436695D01*
X258740Y436642D01*
X258635Y436585D01*
X258531Y436525D01*
X258430Y436461D01*
X258332Y436394D01*
X258235Y436324D01*
X258141Y436250D01*
X258049Y436174D01*
X257960Y436094D01*
X257873Y436012D01*
X257789Y435927D01*
X257708Y435839D01*
X257631Y435749D01*
X257556Y435656D01*
X257484Y435560D01*
X257415Y435462D01*
X257350Y435362D01*
X257288Y435260D01*
X257229Y435156D01*
X257174Y435050D01*
X257123Y434942D01*
X257075Y434833D01*
X257030Y434722D01*
X256990Y434610D01*
X256953Y434496D01*
X256920Y434381D01*
X256890Y434266D01*
X256865Y434149D01*
X256843Y434032D01*
X256826Y433913D01*
X256812Y433795D01*
X256802Y433676D01*
X256796Y433556D01*
X256794Y433437D01*
X256794Y431631D01*
X264018Y431631D01*
X249866Y437049D02*
X249866Y426212D01*
X249866Y437049D02*
X244447Y437049D01*
X244447Y435243D01*
X224041Y442468D02*
X224041Y426212D01*
X228557Y426212D01*
X228658Y426214D01*
X228759Y426220D01*
X228860Y426229D01*
X228961Y426242D01*
X229061Y426259D01*
X229160Y426280D01*
X229258Y426304D01*
X229355Y426332D01*
X229452Y426364D01*
X229547Y426399D01*
X229640Y426438D01*
X229732Y426480D01*
X229823Y426526D01*
X229912Y426575D01*
X229998Y426627D01*
X230083Y426683D01*
X230166Y426741D01*
X230246Y426803D01*
X230324Y426868D01*
X230400Y426935D01*
X230473Y427005D01*
X230543Y427078D01*
X230610Y427154D01*
X230675Y427232D01*
X230737Y427312D01*
X230795Y427395D01*
X230851Y427480D01*
X230903Y427567D01*
X230952Y427655D01*
X230998Y427746D01*
X231040Y427838D01*
X231079Y427931D01*
X231114Y428026D01*
X231146Y428123D01*
X231174Y428220D01*
X231198Y428318D01*
X231219Y428417D01*
X231236Y428517D01*
X231249Y428618D01*
X231258Y428719D01*
X231264Y428820D01*
X231266Y428921D01*
X231266Y434340D01*
X231264Y434441D01*
X231258Y434542D01*
X231249Y434643D01*
X231236Y434744D01*
X231219Y434844D01*
X231198Y434943D01*
X231174Y435041D01*
X231146Y435138D01*
X231114Y435235D01*
X231079Y435330D01*
X231040Y435423D01*
X230998Y435515D01*
X230952Y435606D01*
X230903Y435695D01*
X230851Y435781D01*
X230795Y435866D01*
X230737Y435949D01*
X230675Y436029D01*
X230610Y436107D01*
X230543Y436183D01*
X230473Y436256D01*
X230400Y436326D01*
X230324Y436393D01*
X230246Y436458D01*
X230166Y436520D01*
X230083Y436578D01*
X229998Y436634D01*
X229912Y436686D01*
X229823Y436735D01*
X229732Y436781D01*
X229640Y436823D01*
X229547Y436862D01*
X229452Y436897D01*
X229355Y436929D01*
X229258Y436957D01*
X229160Y436981D01*
X229061Y437002D01*
X228961Y437019D01*
X228860Y437032D01*
X228759Y437041D01*
X228658Y437047D01*
X228557Y437049D01*
X224041Y437049D01*
X214416Y426212D02*
X209900Y426212D01*
X214416Y426212D02*
X214517Y426214D01*
X214618Y426220D01*
X214719Y426229D01*
X214820Y426242D01*
X214920Y426259D01*
X215019Y426280D01*
X215117Y426304D01*
X215214Y426332D01*
X215311Y426364D01*
X215406Y426399D01*
X215499Y426438D01*
X215591Y426480D01*
X215682Y426526D01*
X215771Y426575D01*
X215857Y426627D01*
X215942Y426683D01*
X216025Y426741D01*
X216105Y426803D01*
X216183Y426868D01*
X216259Y426935D01*
X216332Y427005D01*
X216402Y427078D01*
X216469Y427154D01*
X216534Y427232D01*
X216596Y427312D01*
X216654Y427395D01*
X216710Y427480D01*
X216762Y427567D01*
X216811Y427655D01*
X216857Y427746D01*
X216899Y427838D01*
X216938Y427931D01*
X216973Y428026D01*
X217005Y428123D01*
X217033Y428220D01*
X217057Y428318D01*
X217078Y428417D01*
X217095Y428517D01*
X217108Y428618D01*
X217117Y428719D01*
X217123Y428820D01*
X217125Y428921D01*
X217125Y433437D01*
X217124Y433437D02*
X217122Y433556D01*
X217116Y433676D01*
X217106Y433795D01*
X217092Y433913D01*
X217075Y434032D01*
X217053Y434149D01*
X217028Y434266D01*
X216998Y434381D01*
X216965Y434496D01*
X216928Y434610D01*
X216888Y434722D01*
X216843Y434833D01*
X216795Y434942D01*
X216744Y435050D01*
X216689Y435156D01*
X216630Y435260D01*
X216568Y435362D01*
X216503Y435462D01*
X216434Y435560D01*
X216362Y435656D01*
X216287Y435749D01*
X216210Y435839D01*
X216129Y435927D01*
X216045Y436012D01*
X215958Y436094D01*
X215869Y436174D01*
X215777Y436250D01*
X215683Y436324D01*
X215586Y436394D01*
X215488Y436461D01*
X215387Y436525D01*
X215283Y436585D01*
X215178Y436642D01*
X215071Y436695D01*
X214963Y436745D01*
X214853Y436791D01*
X214741Y436833D01*
X214628Y436872D01*
X214514Y436907D01*
X214399Y436938D01*
X214282Y436966D01*
X214165Y436989D01*
X214048Y437009D01*
X213929Y437025D01*
X213810Y437037D01*
X213691Y437045D01*
X213572Y437049D01*
X213452Y437049D01*
X213333Y437045D01*
X213214Y437037D01*
X213095Y437025D01*
X212976Y437009D01*
X212859Y436989D01*
X212742Y436966D01*
X212625Y436938D01*
X212510Y436907D01*
X212396Y436872D01*
X212283Y436833D01*
X212171Y436791D01*
X212061Y436745D01*
X211953Y436695D01*
X211846Y436642D01*
X211741Y436585D01*
X211637Y436525D01*
X211536Y436461D01*
X211438Y436394D01*
X211341Y436324D01*
X211247Y436250D01*
X211155Y436174D01*
X211066Y436094D01*
X210979Y436012D01*
X210895Y435927D01*
X210814Y435839D01*
X210737Y435749D01*
X210662Y435656D01*
X210590Y435560D01*
X210521Y435462D01*
X210456Y435362D01*
X210394Y435260D01*
X210335Y435156D01*
X210280Y435050D01*
X210229Y434942D01*
X210181Y434833D01*
X210136Y434722D01*
X210096Y434610D01*
X210059Y434496D01*
X210026Y434381D01*
X209996Y434266D01*
X209971Y434149D01*
X209949Y434032D01*
X209932Y433913D01*
X209918Y433795D01*
X209908Y433676D01*
X209902Y433556D01*
X209900Y433437D01*
X209900Y431631D01*
X217125Y431631D01*
X194490Y426212D02*
X194490Y442468D01*
X189974Y442468D01*
X189841Y442466D01*
X189709Y442460D01*
X189577Y442450D01*
X189445Y442437D01*
X189313Y442419D01*
X189183Y442398D01*
X189052Y442373D01*
X188923Y442344D01*
X188795Y442311D01*
X188667Y442275D01*
X188541Y442235D01*
X188416Y442191D01*
X188292Y442143D01*
X188170Y442092D01*
X188049Y442037D01*
X187930Y441979D01*
X187812Y441917D01*
X187697Y441852D01*
X187583Y441783D01*
X187472Y441712D01*
X187363Y441636D01*
X187256Y441558D01*
X187151Y441477D01*
X187049Y441392D01*
X186949Y441305D01*
X186852Y441215D01*
X186757Y441122D01*
X186666Y441026D01*
X186577Y440928D01*
X186491Y440827D01*
X186408Y440723D01*
X186328Y440617D01*
X186252Y440509D01*
X186178Y440399D01*
X186108Y440286D01*
X186041Y440172D01*
X185978Y440055D01*
X185918Y439937D01*
X185861Y439817D01*
X185808Y439695D01*
X185759Y439572D01*
X185713Y439448D01*
X185671Y439322D01*
X185633Y439195D01*
X185598Y439067D01*
X185567Y438938D01*
X185540Y438809D01*
X185517Y438678D01*
X185497Y438547D01*
X185482Y438415D01*
X185470Y438283D01*
X185462Y438151D01*
X185458Y438018D01*
X185458Y437886D01*
X185462Y437753D01*
X185470Y437621D01*
X185482Y437489D01*
X185497Y437357D01*
X185517Y437226D01*
X185540Y437095D01*
X185567Y436966D01*
X185598Y436837D01*
X185633Y436709D01*
X185671Y436582D01*
X185713Y436456D01*
X185759Y436332D01*
X185808Y436209D01*
X185861Y436087D01*
X185918Y435967D01*
X185978Y435849D01*
X186041Y435732D01*
X186108Y435618D01*
X186178Y435505D01*
X186252Y435395D01*
X186328Y435287D01*
X186408Y435181D01*
X186491Y435077D01*
X186577Y434976D01*
X186666Y434878D01*
X186757Y434782D01*
X186852Y434689D01*
X186949Y434599D01*
X187049Y434512D01*
X187151Y434427D01*
X187256Y434346D01*
X187363Y434268D01*
X187472Y434192D01*
X187583Y434121D01*
X187697Y434052D01*
X187812Y433987D01*
X187930Y433925D01*
X188049Y433867D01*
X188170Y433812D01*
X188292Y433761D01*
X188416Y433713D01*
X188541Y433669D01*
X188667Y433629D01*
X188795Y433593D01*
X188923Y433560D01*
X189052Y433531D01*
X189183Y433506D01*
X189313Y433485D01*
X189445Y433467D01*
X189577Y433454D01*
X189709Y433444D01*
X189841Y433438D01*
X189974Y433436D01*
X189974Y433437D02*
X194490Y433437D01*
X189071Y433437D02*
X185458Y426212D01*
X179089Y429824D02*
X179089Y433437D01*
X179088Y433437D02*
X179086Y433556D01*
X179080Y433676D01*
X179070Y433795D01*
X179056Y433913D01*
X179039Y434032D01*
X179017Y434149D01*
X178992Y434266D01*
X178962Y434381D01*
X178929Y434496D01*
X178892Y434610D01*
X178852Y434722D01*
X178807Y434833D01*
X178759Y434942D01*
X178708Y435050D01*
X178653Y435156D01*
X178594Y435260D01*
X178532Y435362D01*
X178467Y435462D01*
X178398Y435560D01*
X178326Y435656D01*
X178251Y435749D01*
X178174Y435839D01*
X178093Y435927D01*
X178009Y436012D01*
X177922Y436094D01*
X177833Y436174D01*
X177741Y436250D01*
X177647Y436324D01*
X177550Y436394D01*
X177452Y436461D01*
X177351Y436525D01*
X177247Y436585D01*
X177142Y436642D01*
X177035Y436695D01*
X176927Y436745D01*
X176817Y436791D01*
X176705Y436833D01*
X176592Y436872D01*
X176478Y436907D01*
X176363Y436938D01*
X176246Y436966D01*
X176129Y436989D01*
X176012Y437009D01*
X175893Y437025D01*
X175774Y437037D01*
X175655Y437045D01*
X175536Y437049D01*
X175416Y437049D01*
X175297Y437045D01*
X175178Y437037D01*
X175059Y437025D01*
X174940Y437009D01*
X174823Y436989D01*
X174706Y436966D01*
X174589Y436938D01*
X174474Y436907D01*
X174360Y436872D01*
X174247Y436833D01*
X174135Y436791D01*
X174025Y436745D01*
X173917Y436695D01*
X173810Y436642D01*
X173705Y436585D01*
X173601Y436525D01*
X173500Y436461D01*
X173402Y436394D01*
X173305Y436324D01*
X173211Y436250D01*
X173119Y436174D01*
X173030Y436094D01*
X172943Y436012D01*
X172859Y435927D01*
X172778Y435839D01*
X172701Y435749D01*
X172626Y435656D01*
X172554Y435560D01*
X172485Y435462D01*
X172420Y435362D01*
X172358Y435260D01*
X172299Y435156D01*
X172244Y435050D01*
X172193Y434942D01*
X172145Y434833D01*
X172100Y434722D01*
X172060Y434610D01*
X172023Y434496D01*
X171990Y434381D01*
X171960Y434266D01*
X171935Y434149D01*
X171913Y434032D01*
X171896Y433913D01*
X171882Y433795D01*
X171872Y433676D01*
X171866Y433556D01*
X171864Y433437D01*
X171864Y429824D01*
X171866Y429705D01*
X171872Y429585D01*
X171882Y429466D01*
X171896Y429348D01*
X171913Y429229D01*
X171935Y429112D01*
X171960Y428995D01*
X171990Y428880D01*
X172023Y428765D01*
X172060Y428651D01*
X172100Y428539D01*
X172145Y428428D01*
X172193Y428319D01*
X172244Y428211D01*
X172299Y428105D01*
X172358Y428001D01*
X172420Y427899D01*
X172485Y427799D01*
X172554Y427701D01*
X172626Y427605D01*
X172701Y427512D01*
X172778Y427422D01*
X172859Y427334D01*
X172943Y427249D01*
X173030Y427167D01*
X173119Y427087D01*
X173211Y427011D01*
X173305Y426937D01*
X173402Y426867D01*
X173500Y426800D01*
X173601Y426736D01*
X173705Y426676D01*
X173810Y426619D01*
X173917Y426566D01*
X174025Y426516D01*
X174135Y426470D01*
X174247Y426428D01*
X174360Y426389D01*
X174474Y426354D01*
X174589Y426323D01*
X174706Y426295D01*
X174823Y426272D01*
X174940Y426252D01*
X175059Y426236D01*
X175178Y426224D01*
X175297Y426216D01*
X175416Y426212D01*
X175536Y426212D01*
X175655Y426216D01*
X175774Y426224D01*
X175893Y426236D01*
X176012Y426252D01*
X176129Y426272D01*
X176246Y426295D01*
X176363Y426323D01*
X176478Y426354D01*
X176592Y426389D01*
X176705Y426428D01*
X176817Y426470D01*
X176927Y426516D01*
X177035Y426566D01*
X177142Y426619D01*
X177247Y426676D01*
X177351Y426736D01*
X177452Y426800D01*
X177550Y426867D01*
X177647Y426937D01*
X177741Y427011D01*
X177833Y427087D01*
X177922Y427167D01*
X178009Y427249D01*
X178093Y427334D01*
X178174Y427422D01*
X178251Y427512D01*
X178326Y427605D01*
X178398Y427701D01*
X178467Y427799D01*
X178532Y427899D01*
X178594Y428001D01*
X178653Y428105D01*
X178708Y428211D01*
X178759Y428319D01*
X178807Y428428D01*
X178852Y428539D01*
X178892Y428651D01*
X178929Y428765D01*
X178962Y428880D01*
X178992Y428995D01*
X179017Y429112D01*
X179039Y429229D01*
X179056Y429348D01*
X179070Y429466D01*
X179080Y429585D01*
X179086Y429705D01*
X179088Y429824D01*
X164948Y426212D02*
X164948Y442468D01*
X164948Y426212D02*
X160432Y426212D01*
X160328Y426214D01*
X160225Y426220D01*
X160121Y426230D01*
X160018Y426244D01*
X159916Y426262D01*
X159815Y426283D01*
X159714Y426309D01*
X159615Y426338D01*
X159516Y426371D01*
X159419Y426408D01*
X159324Y426449D01*
X159230Y426493D01*
X159138Y426541D01*
X159048Y426592D01*
X158959Y426647D01*
X158873Y426705D01*
X158790Y426767D01*
X158708Y426831D01*
X158630Y426899D01*
X158554Y426969D01*
X158480Y427042D01*
X158410Y427119D01*
X158342Y427197D01*
X158278Y427279D01*
X158216Y427362D01*
X158158Y427448D01*
X158103Y427537D01*
X158052Y427627D01*
X158004Y427719D01*
X157960Y427813D01*
X157919Y427908D01*
X157882Y428005D01*
X157849Y428104D01*
X157820Y428203D01*
X157794Y428304D01*
X157773Y428405D01*
X157755Y428507D01*
X157741Y428610D01*
X157731Y428714D01*
X157725Y428817D01*
X157723Y428921D01*
X157723Y434340D01*
X157725Y434441D01*
X157731Y434542D01*
X157740Y434643D01*
X157753Y434744D01*
X157770Y434844D01*
X157791Y434943D01*
X157815Y435041D01*
X157843Y435138D01*
X157875Y435235D01*
X157910Y435330D01*
X157949Y435423D01*
X157991Y435515D01*
X158037Y435606D01*
X158086Y435695D01*
X158138Y435781D01*
X158194Y435866D01*
X158252Y435949D01*
X158314Y436029D01*
X158379Y436107D01*
X158446Y436183D01*
X158516Y436256D01*
X158589Y436326D01*
X158665Y436393D01*
X158743Y436458D01*
X158823Y436520D01*
X158906Y436578D01*
X158991Y436634D01*
X159078Y436686D01*
X159166Y436735D01*
X159257Y436781D01*
X159349Y436823D01*
X159442Y436862D01*
X159537Y436897D01*
X159634Y436929D01*
X159731Y436957D01*
X159829Y436981D01*
X159928Y437002D01*
X160028Y437019D01*
X160129Y437032D01*
X160230Y437041D01*
X160331Y437047D01*
X160432Y437049D01*
X164948Y437049D01*
X151474Y433437D02*
X151474Y429824D01*
X151473Y433437D02*
X151471Y433556D01*
X151465Y433676D01*
X151455Y433795D01*
X151441Y433913D01*
X151424Y434032D01*
X151402Y434149D01*
X151377Y434266D01*
X151347Y434381D01*
X151314Y434496D01*
X151277Y434610D01*
X151237Y434722D01*
X151192Y434833D01*
X151144Y434942D01*
X151093Y435050D01*
X151038Y435156D01*
X150979Y435260D01*
X150917Y435362D01*
X150852Y435462D01*
X150783Y435560D01*
X150711Y435656D01*
X150636Y435749D01*
X150559Y435839D01*
X150478Y435927D01*
X150394Y436012D01*
X150307Y436094D01*
X150218Y436174D01*
X150126Y436250D01*
X150032Y436324D01*
X149935Y436394D01*
X149837Y436461D01*
X149736Y436525D01*
X149632Y436585D01*
X149527Y436642D01*
X149420Y436695D01*
X149312Y436745D01*
X149202Y436791D01*
X149090Y436833D01*
X148977Y436872D01*
X148863Y436907D01*
X148748Y436938D01*
X148631Y436966D01*
X148514Y436989D01*
X148397Y437009D01*
X148278Y437025D01*
X148159Y437037D01*
X148040Y437045D01*
X147921Y437049D01*
X147801Y437049D01*
X147682Y437045D01*
X147563Y437037D01*
X147444Y437025D01*
X147325Y437009D01*
X147208Y436989D01*
X147091Y436966D01*
X146974Y436938D01*
X146859Y436907D01*
X146745Y436872D01*
X146632Y436833D01*
X146520Y436791D01*
X146410Y436745D01*
X146302Y436695D01*
X146195Y436642D01*
X146090Y436585D01*
X145986Y436525D01*
X145885Y436461D01*
X145787Y436394D01*
X145690Y436324D01*
X145596Y436250D01*
X145504Y436174D01*
X145415Y436094D01*
X145328Y436012D01*
X145244Y435927D01*
X145163Y435839D01*
X145086Y435749D01*
X145011Y435656D01*
X144939Y435560D01*
X144870Y435462D01*
X144805Y435362D01*
X144743Y435260D01*
X144684Y435156D01*
X144629Y435050D01*
X144578Y434942D01*
X144530Y434833D01*
X144485Y434722D01*
X144445Y434610D01*
X144408Y434496D01*
X144375Y434381D01*
X144345Y434266D01*
X144320Y434149D01*
X144298Y434032D01*
X144281Y433913D01*
X144267Y433795D01*
X144257Y433676D01*
X144251Y433556D01*
X144249Y433437D01*
X144249Y429824D01*
X144251Y429705D01*
X144257Y429585D01*
X144267Y429466D01*
X144281Y429348D01*
X144298Y429229D01*
X144320Y429112D01*
X144345Y428995D01*
X144375Y428880D01*
X144408Y428765D01*
X144445Y428651D01*
X144485Y428539D01*
X144530Y428428D01*
X144578Y428319D01*
X144629Y428211D01*
X144684Y428105D01*
X144743Y428001D01*
X144805Y427899D01*
X144870Y427799D01*
X144939Y427701D01*
X145011Y427605D01*
X145086Y427512D01*
X145163Y427422D01*
X145244Y427334D01*
X145328Y427249D01*
X145415Y427167D01*
X145504Y427087D01*
X145596Y427011D01*
X145690Y426937D01*
X145787Y426867D01*
X145885Y426800D01*
X145986Y426736D01*
X146090Y426676D01*
X146195Y426619D01*
X146302Y426566D01*
X146410Y426516D01*
X146520Y426470D01*
X146632Y426428D01*
X146745Y426389D01*
X146859Y426354D01*
X146974Y426323D01*
X147091Y426295D01*
X147208Y426272D01*
X147325Y426252D01*
X147444Y426236D01*
X147563Y426224D01*
X147682Y426216D01*
X147801Y426212D01*
X147921Y426212D01*
X148040Y426216D01*
X148159Y426224D01*
X148278Y426236D01*
X148397Y426252D01*
X148514Y426272D01*
X148631Y426295D01*
X148748Y426323D01*
X148863Y426354D01*
X148977Y426389D01*
X149090Y426428D01*
X149202Y426470D01*
X149312Y426516D01*
X149420Y426566D01*
X149527Y426619D01*
X149632Y426676D01*
X149736Y426736D01*
X149837Y426800D01*
X149935Y426867D01*
X150032Y426937D01*
X150126Y427011D01*
X150218Y427087D01*
X150307Y427167D01*
X150394Y427249D01*
X150478Y427334D01*
X150559Y427422D01*
X150636Y427512D01*
X150711Y427605D01*
X150783Y427701D01*
X150852Y427799D01*
X150917Y427899D01*
X150979Y428001D01*
X151038Y428105D01*
X151093Y428211D01*
X151144Y428319D01*
X151192Y428428D01*
X151237Y428539D01*
X151277Y428651D01*
X151314Y428765D01*
X151347Y428880D01*
X151377Y428995D01*
X151402Y429112D01*
X151424Y429229D01*
X151441Y429348D01*
X151455Y429466D01*
X151465Y429585D01*
X151471Y429705D01*
X151473Y429824D01*
X139224Y437049D02*
X133805Y437049D01*
X137418Y442468D02*
X137418Y428921D01*
X137417Y428921D02*
X137415Y428820D01*
X137409Y428719D01*
X137400Y428618D01*
X137387Y428517D01*
X137370Y428417D01*
X137349Y428318D01*
X137325Y428220D01*
X137297Y428123D01*
X137265Y428026D01*
X137230Y427931D01*
X137191Y427838D01*
X137149Y427746D01*
X137103Y427655D01*
X137054Y427567D01*
X137002Y427480D01*
X136946Y427395D01*
X136888Y427312D01*
X136826Y427232D01*
X136761Y427154D01*
X136694Y427078D01*
X136624Y427005D01*
X136551Y426935D01*
X136475Y426868D01*
X136397Y426803D01*
X136317Y426741D01*
X136234Y426683D01*
X136149Y426627D01*
X136063Y426575D01*
X135974Y426526D01*
X135883Y426480D01*
X135791Y426438D01*
X135698Y426399D01*
X135603Y426364D01*
X135506Y426332D01*
X135409Y426304D01*
X135311Y426280D01*
X135212Y426259D01*
X135112Y426242D01*
X135011Y426229D01*
X134910Y426220D01*
X134809Y426214D01*
X134708Y426212D01*
X133805Y426212D01*
X128062Y426212D02*
X128062Y437049D01*
X128513Y441565D02*
X128513Y442468D01*
X127610Y442468D01*
X127610Y441565D01*
X128513Y441565D01*
X119048Y426212D02*
X115435Y426212D01*
X119048Y426212D02*
X119149Y426214D01*
X119250Y426220D01*
X119351Y426229D01*
X119452Y426242D01*
X119552Y426259D01*
X119651Y426280D01*
X119749Y426304D01*
X119846Y426332D01*
X119943Y426364D01*
X120038Y426399D01*
X120131Y426438D01*
X120223Y426480D01*
X120314Y426526D01*
X120402Y426575D01*
X120489Y426627D01*
X120574Y426683D01*
X120657Y426741D01*
X120737Y426803D01*
X120815Y426868D01*
X120891Y426935D01*
X120964Y427005D01*
X121034Y427078D01*
X121101Y427154D01*
X121166Y427232D01*
X121228Y427312D01*
X121286Y427395D01*
X121342Y427480D01*
X121394Y427567D01*
X121443Y427655D01*
X121489Y427746D01*
X121531Y427838D01*
X121570Y427931D01*
X121605Y428026D01*
X121637Y428123D01*
X121665Y428220D01*
X121689Y428318D01*
X121710Y428417D01*
X121727Y428517D01*
X121740Y428618D01*
X121749Y428719D01*
X121755Y428820D01*
X121757Y428921D01*
X121757Y434340D01*
X121755Y434441D01*
X121749Y434542D01*
X121740Y434643D01*
X121727Y434744D01*
X121710Y434844D01*
X121689Y434943D01*
X121665Y435041D01*
X121637Y435138D01*
X121605Y435235D01*
X121570Y435330D01*
X121531Y435423D01*
X121489Y435515D01*
X121443Y435606D01*
X121394Y435695D01*
X121342Y435781D01*
X121286Y435866D01*
X121228Y435949D01*
X121166Y436029D01*
X121101Y436107D01*
X121034Y436183D01*
X120964Y436256D01*
X120891Y436326D01*
X120815Y436393D01*
X120737Y436458D01*
X120657Y436520D01*
X120574Y436578D01*
X120489Y436634D01*
X120403Y436686D01*
X120314Y436735D01*
X120223Y436781D01*
X120131Y436823D01*
X120038Y436862D01*
X119943Y436897D01*
X119846Y436929D01*
X119749Y436957D01*
X119651Y436981D01*
X119552Y437002D01*
X119452Y437019D01*
X119351Y437032D01*
X119250Y437041D01*
X119149Y437047D01*
X119048Y437049D01*
X115435Y437049D01*
X106703Y432534D02*
X102639Y432534D01*
X106703Y432534D02*
X106815Y432532D01*
X106926Y432526D01*
X107037Y432516D01*
X107148Y432503D01*
X107258Y432485D01*
X107367Y432463D01*
X107476Y432438D01*
X107584Y432409D01*
X107690Y432376D01*
X107796Y432339D01*
X107900Y432299D01*
X108002Y432255D01*
X108103Y432207D01*
X108202Y432156D01*
X108300Y432101D01*
X108395Y432043D01*
X108488Y431982D01*
X108579Y431917D01*
X108668Y431849D01*
X108754Y431778D01*
X108837Y431705D01*
X108918Y431628D01*
X108997Y431548D01*
X109072Y431466D01*
X109144Y431381D01*
X109214Y431294D01*
X109280Y431204D01*
X109343Y431112D01*
X109403Y431017D01*
X109459Y430921D01*
X109512Y430823D01*
X109561Y430723D01*
X109607Y430621D01*
X109649Y430518D01*
X109688Y430413D01*
X109723Y430307D01*
X109754Y430200D01*
X109781Y430092D01*
X109805Y429983D01*
X109824Y429873D01*
X109840Y429763D01*
X109852Y429652D01*
X109860Y429540D01*
X109864Y429429D01*
X109864Y429317D01*
X109860Y429206D01*
X109852Y429094D01*
X109840Y428983D01*
X109824Y428873D01*
X109805Y428763D01*
X109781Y428654D01*
X109754Y428546D01*
X109723Y428439D01*
X109688Y428333D01*
X109649Y428228D01*
X109607Y428125D01*
X109561Y428023D01*
X109512Y427923D01*
X109459Y427825D01*
X109403Y427729D01*
X109343Y427634D01*
X109280Y427542D01*
X109214Y427452D01*
X109144Y427365D01*
X109072Y427280D01*
X108997Y427198D01*
X108918Y427118D01*
X108837Y427041D01*
X108754Y426968D01*
X108668Y426897D01*
X108579Y426829D01*
X108488Y426764D01*
X108395Y426703D01*
X108300Y426645D01*
X108202Y426590D01*
X108103Y426539D01*
X108002Y426491D01*
X107900Y426447D01*
X107796Y426407D01*
X107690Y426370D01*
X107584Y426337D01*
X107476Y426308D01*
X107367Y426283D01*
X107258Y426261D01*
X107148Y426243D01*
X107037Y426230D01*
X106926Y426220D01*
X106815Y426214D01*
X106703Y426212D01*
X102639Y426212D01*
X102639Y434340D01*
X102641Y434441D01*
X102647Y434542D01*
X102656Y434643D01*
X102669Y434744D01*
X102686Y434844D01*
X102707Y434943D01*
X102731Y435041D01*
X102759Y435138D01*
X102791Y435235D01*
X102826Y435330D01*
X102865Y435423D01*
X102907Y435515D01*
X102953Y435606D01*
X103002Y435695D01*
X103054Y435781D01*
X103110Y435866D01*
X103168Y435949D01*
X103230Y436029D01*
X103295Y436107D01*
X103362Y436183D01*
X103432Y436256D01*
X103505Y436326D01*
X103581Y436393D01*
X103659Y436458D01*
X103739Y436520D01*
X103822Y436578D01*
X103907Y436634D01*
X103994Y436686D01*
X104082Y436735D01*
X104173Y436781D01*
X104265Y436823D01*
X104358Y436862D01*
X104453Y436897D01*
X104550Y436929D01*
X104647Y436957D01*
X104745Y436981D01*
X104844Y437002D01*
X104944Y437019D01*
X105045Y437032D01*
X105146Y437041D01*
X105247Y437047D01*
X105348Y437049D01*
X108961Y437049D01*
X299219Y415798D02*
X299219Y399542D01*
X299219Y415798D02*
X294703Y415798D01*
X294570Y415796D01*
X294438Y415790D01*
X294306Y415780D01*
X294174Y415767D01*
X294042Y415749D01*
X293912Y415728D01*
X293781Y415703D01*
X293652Y415674D01*
X293524Y415641D01*
X293396Y415605D01*
X293270Y415565D01*
X293145Y415521D01*
X293021Y415473D01*
X292899Y415422D01*
X292778Y415367D01*
X292659Y415309D01*
X292541Y415247D01*
X292426Y415182D01*
X292312Y415113D01*
X292201Y415042D01*
X292092Y414966D01*
X291985Y414888D01*
X291880Y414807D01*
X291778Y414722D01*
X291678Y414635D01*
X291581Y414545D01*
X291486Y414452D01*
X291395Y414356D01*
X291306Y414258D01*
X291220Y414157D01*
X291137Y414053D01*
X291057Y413947D01*
X290981Y413839D01*
X290907Y413729D01*
X290837Y413616D01*
X290770Y413502D01*
X290707Y413385D01*
X290647Y413267D01*
X290590Y413147D01*
X290537Y413025D01*
X290488Y412902D01*
X290442Y412778D01*
X290400Y412652D01*
X290362Y412525D01*
X290327Y412397D01*
X290296Y412268D01*
X290269Y412139D01*
X290246Y412008D01*
X290226Y411877D01*
X290211Y411745D01*
X290199Y411613D01*
X290191Y411481D01*
X290187Y411348D01*
X290187Y411216D01*
X290191Y411083D01*
X290199Y410951D01*
X290211Y410819D01*
X290226Y410687D01*
X290246Y410556D01*
X290269Y410425D01*
X290296Y410296D01*
X290327Y410167D01*
X290362Y410039D01*
X290400Y409912D01*
X290442Y409786D01*
X290488Y409662D01*
X290537Y409539D01*
X290590Y409417D01*
X290647Y409297D01*
X290707Y409179D01*
X290770Y409062D01*
X290837Y408948D01*
X290907Y408835D01*
X290981Y408725D01*
X291057Y408617D01*
X291137Y408511D01*
X291220Y408407D01*
X291306Y408306D01*
X291395Y408208D01*
X291486Y408112D01*
X291581Y408019D01*
X291678Y407929D01*
X291778Y407842D01*
X291880Y407757D01*
X291985Y407676D01*
X292092Y407598D01*
X292201Y407522D01*
X292312Y407451D01*
X292426Y407382D01*
X292541Y407317D01*
X292659Y407255D01*
X292778Y407197D01*
X292899Y407142D01*
X293021Y407091D01*
X293145Y407043D01*
X293270Y406999D01*
X293396Y406959D01*
X293524Y406923D01*
X293652Y406890D01*
X293781Y406861D01*
X293912Y406836D01*
X294042Y406815D01*
X294174Y406797D01*
X294306Y406784D01*
X294438Y406774D01*
X294570Y406768D01*
X294703Y406766D01*
X294703Y406767D02*
X299219Y406767D01*
X293800Y406767D02*
X290188Y399542D01*
X283818Y403154D02*
X283818Y406767D01*
X283816Y406886D01*
X283810Y407006D01*
X283800Y407125D01*
X283786Y407243D01*
X283769Y407362D01*
X283747Y407479D01*
X283722Y407596D01*
X283692Y407711D01*
X283659Y407826D01*
X283622Y407940D01*
X283582Y408052D01*
X283537Y408163D01*
X283489Y408272D01*
X283438Y408380D01*
X283383Y408486D01*
X283324Y408590D01*
X283262Y408692D01*
X283197Y408792D01*
X283128Y408890D01*
X283056Y408986D01*
X282981Y409079D01*
X282904Y409169D01*
X282823Y409257D01*
X282739Y409342D01*
X282652Y409424D01*
X282563Y409504D01*
X282471Y409580D01*
X282377Y409654D01*
X282280Y409724D01*
X282182Y409791D01*
X282081Y409855D01*
X281977Y409915D01*
X281872Y409972D01*
X281765Y410025D01*
X281657Y410075D01*
X281547Y410121D01*
X281435Y410163D01*
X281322Y410202D01*
X281208Y410237D01*
X281093Y410268D01*
X280976Y410296D01*
X280859Y410319D01*
X280742Y410339D01*
X280623Y410355D01*
X280504Y410367D01*
X280385Y410375D01*
X280266Y410379D01*
X280146Y410379D01*
X280027Y410375D01*
X279908Y410367D01*
X279789Y410355D01*
X279670Y410339D01*
X279553Y410319D01*
X279436Y410296D01*
X279319Y410268D01*
X279204Y410237D01*
X279090Y410202D01*
X278977Y410163D01*
X278865Y410121D01*
X278755Y410075D01*
X278647Y410025D01*
X278540Y409972D01*
X278435Y409915D01*
X278331Y409855D01*
X278230Y409791D01*
X278132Y409724D01*
X278035Y409654D01*
X277941Y409580D01*
X277849Y409504D01*
X277760Y409424D01*
X277673Y409342D01*
X277589Y409257D01*
X277508Y409169D01*
X277431Y409079D01*
X277356Y408986D01*
X277284Y408890D01*
X277215Y408792D01*
X277150Y408692D01*
X277088Y408590D01*
X277029Y408486D01*
X276974Y408380D01*
X276923Y408272D01*
X276875Y408163D01*
X276830Y408052D01*
X276790Y407940D01*
X276753Y407826D01*
X276720Y407711D01*
X276690Y407596D01*
X276665Y407479D01*
X276643Y407362D01*
X276626Y407243D01*
X276612Y407125D01*
X276602Y407006D01*
X276596Y406886D01*
X276594Y406767D01*
X276593Y406767D02*
X276593Y403154D01*
X276594Y403154D02*
X276596Y403035D01*
X276602Y402915D01*
X276612Y402796D01*
X276626Y402678D01*
X276643Y402559D01*
X276665Y402442D01*
X276690Y402325D01*
X276720Y402210D01*
X276753Y402095D01*
X276790Y401981D01*
X276830Y401869D01*
X276875Y401758D01*
X276923Y401649D01*
X276974Y401541D01*
X277029Y401435D01*
X277088Y401331D01*
X277150Y401229D01*
X277215Y401129D01*
X277284Y401031D01*
X277356Y400935D01*
X277431Y400842D01*
X277508Y400752D01*
X277589Y400664D01*
X277673Y400579D01*
X277760Y400497D01*
X277849Y400417D01*
X277941Y400341D01*
X278035Y400267D01*
X278132Y400197D01*
X278230Y400130D01*
X278331Y400066D01*
X278435Y400006D01*
X278540Y399949D01*
X278647Y399896D01*
X278755Y399846D01*
X278865Y399800D01*
X278977Y399758D01*
X279090Y399719D01*
X279204Y399684D01*
X279319Y399653D01*
X279436Y399625D01*
X279553Y399602D01*
X279670Y399582D01*
X279789Y399566D01*
X279908Y399554D01*
X280027Y399546D01*
X280146Y399542D01*
X280266Y399542D01*
X280385Y399546D01*
X280504Y399554D01*
X280623Y399566D01*
X280742Y399582D01*
X280859Y399602D01*
X280976Y399625D01*
X281093Y399653D01*
X281208Y399684D01*
X281322Y399719D01*
X281435Y399758D01*
X281547Y399800D01*
X281657Y399846D01*
X281765Y399896D01*
X281872Y399949D01*
X281977Y400006D01*
X282081Y400066D01*
X282182Y400130D01*
X282280Y400197D01*
X282377Y400267D01*
X282471Y400341D01*
X282563Y400417D01*
X282652Y400497D01*
X282739Y400579D01*
X282823Y400664D01*
X282904Y400752D01*
X282981Y400842D01*
X283056Y400935D01*
X283128Y401031D01*
X283197Y401129D01*
X283262Y401229D01*
X283324Y401331D01*
X283383Y401435D01*
X283438Y401541D01*
X283489Y401649D01*
X283537Y401758D01*
X283582Y401869D01*
X283622Y401981D01*
X283659Y402095D01*
X283692Y402210D01*
X283722Y402325D01*
X283747Y402442D01*
X283769Y402559D01*
X283786Y402678D01*
X283800Y402796D01*
X283810Y402915D01*
X283816Y403035D01*
X283818Y403154D01*
X269677Y399542D02*
X269677Y415798D01*
X269677Y399542D02*
X265161Y399542D01*
X265057Y399544D01*
X264954Y399550D01*
X264850Y399560D01*
X264747Y399574D01*
X264645Y399592D01*
X264544Y399613D01*
X264443Y399639D01*
X264344Y399668D01*
X264245Y399701D01*
X264148Y399738D01*
X264053Y399779D01*
X263959Y399823D01*
X263867Y399871D01*
X263777Y399922D01*
X263688Y399977D01*
X263602Y400035D01*
X263519Y400097D01*
X263437Y400161D01*
X263359Y400229D01*
X263283Y400299D01*
X263209Y400372D01*
X263139Y400449D01*
X263071Y400527D01*
X263007Y400609D01*
X262945Y400692D01*
X262887Y400778D01*
X262832Y400867D01*
X262781Y400957D01*
X262733Y401049D01*
X262689Y401143D01*
X262648Y401238D01*
X262611Y401335D01*
X262578Y401434D01*
X262549Y401533D01*
X262523Y401634D01*
X262502Y401735D01*
X262484Y401837D01*
X262470Y401940D01*
X262460Y402044D01*
X262454Y402147D01*
X262452Y402251D01*
X262452Y407670D01*
X262454Y407771D01*
X262460Y407872D01*
X262469Y407973D01*
X262482Y408074D01*
X262499Y408174D01*
X262520Y408273D01*
X262544Y408371D01*
X262572Y408468D01*
X262604Y408565D01*
X262639Y408660D01*
X262678Y408753D01*
X262720Y408845D01*
X262766Y408936D01*
X262815Y409025D01*
X262867Y409111D01*
X262923Y409196D01*
X262981Y409279D01*
X263043Y409359D01*
X263108Y409437D01*
X263175Y409513D01*
X263245Y409586D01*
X263318Y409656D01*
X263394Y409723D01*
X263472Y409788D01*
X263552Y409850D01*
X263635Y409908D01*
X263720Y409964D01*
X263807Y410016D01*
X263895Y410065D01*
X263986Y410111D01*
X264078Y410153D01*
X264171Y410192D01*
X264266Y410227D01*
X264363Y410259D01*
X264460Y410287D01*
X264558Y410311D01*
X264657Y410332D01*
X264757Y410349D01*
X264858Y410362D01*
X264959Y410371D01*
X265060Y410377D01*
X265161Y410379D01*
X269677Y410379D01*
X256203Y406767D02*
X256203Y403154D01*
X256202Y406767D02*
X256200Y406886D01*
X256194Y407006D01*
X256184Y407125D01*
X256170Y407243D01*
X256153Y407362D01*
X256131Y407479D01*
X256106Y407596D01*
X256076Y407711D01*
X256043Y407826D01*
X256006Y407940D01*
X255966Y408052D01*
X255921Y408163D01*
X255873Y408272D01*
X255822Y408380D01*
X255767Y408486D01*
X255708Y408590D01*
X255646Y408692D01*
X255581Y408792D01*
X255512Y408890D01*
X255440Y408986D01*
X255365Y409079D01*
X255288Y409169D01*
X255207Y409257D01*
X255123Y409342D01*
X255036Y409424D01*
X254947Y409504D01*
X254855Y409580D01*
X254761Y409654D01*
X254664Y409724D01*
X254566Y409791D01*
X254465Y409855D01*
X254361Y409915D01*
X254256Y409972D01*
X254149Y410025D01*
X254041Y410075D01*
X253931Y410121D01*
X253819Y410163D01*
X253706Y410202D01*
X253592Y410237D01*
X253477Y410268D01*
X253360Y410296D01*
X253243Y410319D01*
X253126Y410339D01*
X253007Y410355D01*
X252888Y410367D01*
X252769Y410375D01*
X252650Y410379D01*
X252530Y410379D01*
X252411Y410375D01*
X252292Y410367D01*
X252173Y410355D01*
X252054Y410339D01*
X251937Y410319D01*
X251820Y410296D01*
X251703Y410268D01*
X251588Y410237D01*
X251474Y410202D01*
X251361Y410163D01*
X251249Y410121D01*
X251139Y410075D01*
X251031Y410025D01*
X250924Y409972D01*
X250819Y409915D01*
X250715Y409855D01*
X250614Y409791D01*
X250516Y409724D01*
X250419Y409654D01*
X250325Y409580D01*
X250233Y409504D01*
X250144Y409424D01*
X250057Y409342D01*
X249973Y409257D01*
X249892Y409169D01*
X249815Y409079D01*
X249740Y408986D01*
X249668Y408890D01*
X249599Y408792D01*
X249534Y408692D01*
X249472Y408590D01*
X249413Y408486D01*
X249358Y408380D01*
X249307Y408272D01*
X249259Y408163D01*
X249214Y408052D01*
X249174Y407940D01*
X249137Y407826D01*
X249104Y407711D01*
X249074Y407596D01*
X249049Y407479D01*
X249027Y407362D01*
X249010Y407243D01*
X248996Y407125D01*
X248986Y407006D01*
X248980Y406886D01*
X248978Y406767D01*
X248978Y403154D01*
X248980Y403035D01*
X248986Y402915D01*
X248996Y402796D01*
X249010Y402678D01*
X249027Y402559D01*
X249049Y402442D01*
X249074Y402325D01*
X249104Y402210D01*
X249137Y402095D01*
X249174Y401981D01*
X249214Y401869D01*
X249259Y401758D01*
X249307Y401649D01*
X249358Y401541D01*
X249413Y401435D01*
X249472Y401331D01*
X249534Y401229D01*
X249599Y401129D01*
X249668Y401031D01*
X249740Y400935D01*
X249815Y400842D01*
X249892Y400752D01*
X249973Y400664D01*
X250057Y400579D01*
X250144Y400497D01*
X250233Y400417D01*
X250325Y400341D01*
X250419Y400267D01*
X250516Y400197D01*
X250614Y400130D01*
X250715Y400066D01*
X250819Y400006D01*
X250924Y399949D01*
X251031Y399896D01*
X251139Y399846D01*
X251249Y399800D01*
X251361Y399758D01*
X251474Y399719D01*
X251588Y399684D01*
X251703Y399653D01*
X251820Y399625D01*
X251937Y399602D01*
X252054Y399582D01*
X252173Y399566D01*
X252292Y399554D01*
X252411Y399546D01*
X252530Y399542D01*
X252650Y399542D01*
X252769Y399546D01*
X252888Y399554D01*
X253007Y399566D01*
X253126Y399582D01*
X253243Y399602D01*
X253360Y399625D01*
X253477Y399653D01*
X253592Y399684D01*
X253706Y399719D01*
X253819Y399758D01*
X253931Y399800D01*
X254041Y399846D01*
X254149Y399896D01*
X254256Y399949D01*
X254361Y400006D01*
X254465Y400066D01*
X254566Y400130D01*
X254664Y400197D01*
X254761Y400267D01*
X254855Y400341D01*
X254947Y400417D01*
X255036Y400497D01*
X255123Y400579D01*
X255207Y400664D01*
X255288Y400752D01*
X255365Y400842D01*
X255440Y400935D01*
X255512Y401031D01*
X255581Y401129D01*
X255646Y401229D01*
X255708Y401331D01*
X255767Y401435D01*
X255822Y401541D01*
X255873Y401649D01*
X255921Y401758D01*
X255966Y401869D01*
X256006Y401981D01*
X256043Y402095D01*
X256076Y402210D01*
X256106Y402325D01*
X256131Y402442D01*
X256153Y402559D01*
X256170Y402678D01*
X256184Y402796D01*
X256194Y402915D01*
X256200Y403035D01*
X256202Y403154D01*
X243953Y410379D02*
X238534Y410379D01*
X242147Y415798D02*
X242147Y402251D01*
X242145Y402150D01*
X242139Y402049D01*
X242130Y401948D01*
X242117Y401847D01*
X242100Y401747D01*
X242079Y401648D01*
X242055Y401550D01*
X242027Y401453D01*
X241995Y401356D01*
X241960Y401261D01*
X241921Y401168D01*
X241879Y401076D01*
X241833Y400985D01*
X241784Y400897D01*
X241732Y400810D01*
X241676Y400725D01*
X241618Y400642D01*
X241556Y400562D01*
X241491Y400484D01*
X241424Y400408D01*
X241354Y400335D01*
X241281Y400265D01*
X241205Y400198D01*
X241127Y400133D01*
X241047Y400071D01*
X240964Y400013D01*
X240879Y399957D01*
X240793Y399905D01*
X240704Y399856D01*
X240613Y399810D01*
X240521Y399768D01*
X240428Y399729D01*
X240333Y399694D01*
X240236Y399662D01*
X240139Y399634D01*
X240041Y399610D01*
X239942Y399589D01*
X239842Y399572D01*
X239741Y399559D01*
X239640Y399550D01*
X239539Y399544D01*
X239438Y399542D01*
X238534Y399542D01*
X224142Y405864D02*
X213304Y405864D01*
X193331Y399542D02*
X193213Y399544D01*
X193095Y399550D01*
X192977Y399559D01*
X192860Y399573D01*
X192743Y399590D01*
X192626Y399611D01*
X192511Y399636D01*
X192396Y399665D01*
X192282Y399698D01*
X192170Y399734D01*
X192059Y399774D01*
X191949Y399817D01*
X191840Y399864D01*
X191733Y399914D01*
X191628Y399969D01*
X191525Y400026D01*
X191424Y400087D01*
X191324Y400151D01*
X191227Y400218D01*
X191132Y400288D01*
X191040Y400362D01*
X190949Y400438D01*
X190862Y400518D01*
X190777Y400600D01*
X190695Y400685D01*
X190615Y400772D01*
X190539Y400863D01*
X190465Y400955D01*
X190395Y401050D01*
X190328Y401147D01*
X190264Y401247D01*
X190203Y401348D01*
X190146Y401451D01*
X190091Y401556D01*
X190041Y401663D01*
X189994Y401772D01*
X189951Y401882D01*
X189911Y401993D01*
X189875Y402105D01*
X189842Y402219D01*
X189813Y402334D01*
X189788Y402449D01*
X189767Y402566D01*
X189750Y402683D01*
X189736Y402800D01*
X189727Y402918D01*
X189721Y403036D01*
X189719Y403154D01*
X193331Y399542D02*
X193514Y399544D01*
X193696Y399551D01*
X193878Y399562D01*
X194060Y399577D01*
X194242Y399597D01*
X194423Y399621D01*
X194603Y399649D01*
X194783Y399681D01*
X194962Y399718D01*
X195139Y399759D01*
X195316Y399805D01*
X195492Y399854D01*
X195667Y399908D01*
X195840Y399966D01*
X196011Y400028D01*
X196182Y400094D01*
X196350Y400165D01*
X196517Y400239D01*
X196682Y400317D01*
X196845Y400399D01*
X197006Y400485D01*
X197165Y400575D01*
X197322Y400669D01*
X197476Y400766D01*
X197628Y400867D01*
X197778Y400972D01*
X197925Y401080D01*
X198069Y401191D01*
X198211Y401306D01*
X198350Y401425D01*
X198486Y401547D01*
X198619Y401672D01*
X198749Y401800D01*
X198298Y412186D02*
X198296Y412304D01*
X198290Y412422D01*
X198281Y412540D01*
X198267Y412657D01*
X198250Y412774D01*
X198229Y412891D01*
X198204Y413006D01*
X198175Y413121D01*
X198142Y413235D01*
X198106Y413347D01*
X198066Y413458D01*
X198023Y413568D01*
X197976Y413677D01*
X197926Y413784D01*
X197871Y413889D01*
X197814Y413992D01*
X197753Y414093D01*
X197689Y414193D01*
X197622Y414290D01*
X197552Y414385D01*
X197478Y414477D01*
X197402Y414568D01*
X197322Y414655D01*
X197240Y414740D01*
X197155Y414822D01*
X197068Y414902D01*
X196977Y414978D01*
X196885Y415052D01*
X196790Y415122D01*
X196693Y415189D01*
X196593Y415253D01*
X196492Y415314D01*
X196389Y415371D01*
X196284Y415426D01*
X196177Y415476D01*
X196068Y415523D01*
X195958Y415566D01*
X195847Y415606D01*
X195735Y415642D01*
X195621Y415675D01*
X195506Y415704D01*
X195391Y415729D01*
X195274Y415750D01*
X195157Y415767D01*
X195040Y415781D01*
X194922Y415790D01*
X194804Y415796D01*
X194686Y415798D01*
X194525Y415796D01*
X194363Y415790D01*
X194202Y415781D01*
X194041Y415767D01*
X193881Y415750D01*
X193721Y415729D01*
X193561Y415704D01*
X193402Y415675D01*
X193244Y415643D01*
X193087Y415607D01*
X192931Y415567D01*
X192775Y415523D01*
X192621Y415475D01*
X192468Y415424D01*
X192316Y415370D01*
X192165Y415311D01*
X192016Y415250D01*
X191869Y415184D01*
X191723Y415115D01*
X191578Y415043D01*
X191436Y414967D01*
X191295Y414888D01*
X191156Y414806D01*
X191020Y414720D01*
X190885Y414631D01*
X190752Y414539D01*
X190622Y414443D01*
X196492Y409025D02*
X196593Y409087D01*
X196693Y409152D01*
X196790Y409221D01*
X196885Y409293D01*
X196978Y409367D01*
X197068Y409445D01*
X197156Y409526D01*
X197241Y409609D01*
X197323Y409695D01*
X197402Y409784D01*
X197479Y409875D01*
X197552Y409969D01*
X197623Y410065D01*
X197690Y410163D01*
X197754Y410263D01*
X197815Y410366D01*
X197872Y410470D01*
X197926Y410576D01*
X197976Y410684D01*
X198023Y410793D01*
X198067Y410904D01*
X198107Y411016D01*
X198143Y411130D01*
X198175Y411244D01*
X198204Y411360D01*
X198229Y411476D01*
X198250Y411593D01*
X198267Y411711D01*
X198281Y411829D01*
X198290Y411948D01*
X198296Y412067D01*
X198298Y412186D01*
X191524Y406315D02*
X191423Y406253D01*
X191323Y406188D01*
X191226Y406119D01*
X191131Y406047D01*
X191038Y405973D01*
X190948Y405895D01*
X190860Y405814D01*
X190775Y405731D01*
X190693Y405645D01*
X190614Y405556D01*
X190537Y405465D01*
X190464Y405371D01*
X190393Y405275D01*
X190326Y405177D01*
X190262Y405077D01*
X190201Y404974D01*
X190144Y404870D01*
X190090Y404764D01*
X190040Y404656D01*
X189993Y404547D01*
X189949Y404436D01*
X189909Y404324D01*
X189873Y404210D01*
X189841Y404096D01*
X189812Y403980D01*
X189787Y403864D01*
X189766Y403747D01*
X189749Y403629D01*
X189735Y403511D01*
X189726Y403392D01*
X189720Y403273D01*
X189718Y403154D01*
X191525Y406315D02*
X196492Y409025D01*
X183257Y415798D02*
X183257Y399542D01*
X183257Y410379D02*
X178742Y410379D01*
X178638Y410377D01*
X178535Y410371D01*
X178431Y410361D01*
X178328Y410347D01*
X178226Y410329D01*
X178125Y410308D01*
X178024Y410282D01*
X177925Y410253D01*
X177826Y410220D01*
X177729Y410183D01*
X177634Y410142D01*
X177540Y410098D01*
X177448Y410050D01*
X177358Y409999D01*
X177269Y409944D01*
X177183Y409886D01*
X177100Y409824D01*
X177018Y409760D01*
X176940Y409692D01*
X176864Y409622D01*
X176790Y409549D01*
X176720Y409472D01*
X176652Y409394D01*
X176588Y409312D01*
X176526Y409229D01*
X176468Y409143D01*
X176413Y409054D01*
X176362Y408964D01*
X176314Y408872D01*
X176270Y408778D01*
X176229Y408683D01*
X176192Y408586D01*
X176159Y408487D01*
X176130Y408388D01*
X176104Y408287D01*
X176083Y408186D01*
X176065Y408084D01*
X176051Y407981D01*
X176041Y407877D01*
X176035Y407774D01*
X176033Y407670D01*
X176032Y407670D02*
X176032Y399542D01*
X169224Y399542D02*
X169224Y410379D01*
X169676Y414895D02*
X169676Y415798D01*
X168773Y415798D01*
X168773Y414895D01*
X169676Y414895D01*
X160227Y399542D02*
X155712Y399542D01*
X160227Y399542D02*
X160328Y399544D01*
X160429Y399550D01*
X160530Y399559D01*
X160631Y399572D01*
X160731Y399589D01*
X160830Y399610D01*
X160928Y399634D01*
X161025Y399662D01*
X161122Y399694D01*
X161217Y399729D01*
X161310Y399768D01*
X161402Y399810D01*
X161493Y399856D01*
X161582Y399905D01*
X161668Y399957D01*
X161753Y400013D01*
X161836Y400071D01*
X161916Y400133D01*
X161994Y400198D01*
X162070Y400265D01*
X162143Y400335D01*
X162213Y400408D01*
X162280Y400484D01*
X162345Y400562D01*
X162407Y400642D01*
X162465Y400725D01*
X162521Y400810D01*
X162573Y400897D01*
X162622Y400985D01*
X162668Y401076D01*
X162710Y401168D01*
X162749Y401261D01*
X162784Y401356D01*
X162816Y401453D01*
X162844Y401550D01*
X162868Y401648D01*
X162889Y401747D01*
X162906Y401847D01*
X162919Y401948D01*
X162928Y402049D01*
X162934Y402150D01*
X162936Y402251D01*
X162937Y402251D02*
X162937Y406767D01*
X162936Y406767D02*
X162934Y406886D01*
X162928Y407006D01*
X162918Y407125D01*
X162904Y407243D01*
X162887Y407362D01*
X162865Y407479D01*
X162840Y407596D01*
X162810Y407711D01*
X162777Y407826D01*
X162740Y407940D01*
X162700Y408052D01*
X162655Y408163D01*
X162607Y408272D01*
X162556Y408380D01*
X162501Y408486D01*
X162442Y408590D01*
X162380Y408692D01*
X162315Y408792D01*
X162246Y408890D01*
X162174Y408986D01*
X162099Y409079D01*
X162022Y409169D01*
X161941Y409257D01*
X161857Y409342D01*
X161770Y409424D01*
X161681Y409504D01*
X161589Y409580D01*
X161495Y409654D01*
X161398Y409724D01*
X161300Y409791D01*
X161199Y409855D01*
X161095Y409915D01*
X160990Y409972D01*
X160883Y410025D01*
X160775Y410075D01*
X160665Y410121D01*
X160553Y410163D01*
X160440Y410202D01*
X160326Y410237D01*
X160211Y410268D01*
X160094Y410296D01*
X159977Y410319D01*
X159860Y410339D01*
X159741Y410355D01*
X159622Y410367D01*
X159503Y410375D01*
X159384Y410379D01*
X159264Y410379D01*
X159145Y410375D01*
X159026Y410367D01*
X158907Y410355D01*
X158788Y410339D01*
X158671Y410319D01*
X158554Y410296D01*
X158437Y410268D01*
X158322Y410237D01*
X158208Y410202D01*
X158095Y410163D01*
X157983Y410121D01*
X157873Y410075D01*
X157765Y410025D01*
X157658Y409972D01*
X157553Y409915D01*
X157449Y409855D01*
X157348Y409791D01*
X157250Y409724D01*
X157153Y409654D01*
X157059Y409580D01*
X156967Y409504D01*
X156878Y409424D01*
X156791Y409342D01*
X156707Y409257D01*
X156626Y409169D01*
X156549Y409079D01*
X156474Y408986D01*
X156402Y408890D01*
X156333Y408792D01*
X156268Y408692D01*
X156206Y408590D01*
X156147Y408486D01*
X156092Y408380D01*
X156041Y408272D01*
X155993Y408163D01*
X155948Y408052D01*
X155908Y407940D01*
X155871Y407826D01*
X155838Y407711D01*
X155808Y407596D01*
X155783Y407479D01*
X155761Y407362D01*
X155744Y407243D01*
X155730Y407125D01*
X155720Y407006D01*
X155714Y406886D01*
X155712Y406767D01*
X155712Y404961D01*
X162937Y404961D01*
X149153Y402251D02*
X149153Y415798D01*
X149152Y402251D02*
X149150Y402150D01*
X149144Y402049D01*
X149135Y401948D01*
X149122Y401847D01*
X149105Y401747D01*
X149084Y401648D01*
X149060Y401550D01*
X149032Y401453D01*
X149000Y401356D01*
X148965Y401261D01*
X148926Y401168D01*
X148884Y401076D01*
X148838Y400985D01*
X148789Y400897D01*
X148737Y400810D01*
X148681Y400725D01*
X148623Y400642D01*
X148561Y400562D01*
X148496Y400484D01*
X148429Y400408D01*
X148359Y400335D01*
X148286Y400265D01*
X148210Y400198D01*
X148132Y400133D01*
X148052Y400071D01*
X147969Y400013D01*
X147884Y399957D01*
X147798Y399905D01*
X147709Y399856D01*
X147618Y399810D01*
X147526Y399768D01*
X147433Y399729D01*
X147338Y399694D01*
X147241Y399662D01*
X147144Y399634D01*
X147046Y399610D01*
X146947Y399589D01*
X146847Y399572D01*
X146746Y399559D01*
X146645Y399550D01*
X146544Y399544D01*
X146443Y399542D01*
X133901Y399542D02*
X133901Y415798D01*
X133901Y399542D02*
X138417Y399542D01*
X138518Y399544D01*
X138619Y399550D01*
X138720Y399559D01*
X138821Y399572D01*
X138921Y399589D01*
X139020Y399610D01*
X139118Y399634D01*
X139215Y399662D01*
X139312Y399694D01*
X139407Y399729D01*
X139500Y399768D01*
X139592Y399810D01*
X139683Y399856D01*
X139772Y399905D01*
X139858Y399957D01*
X139943Y400013D01*
X140026Y400071D01*
X140106Y400133D01*
X140184Y400198D01*
X140260Y400265D01*
X140333Y400335D01*
X140403Y400408D01*
X140470Y400484D01*
X140535Y400562D01*
X140597Y400642D01*
X140655Y400725D01*
X140711Y400810D01*
X140763Y400897D01*
X140812Y400985D01*
X140858Y401076D01*
X140900Y401168D01*
X140939Y401261D01*
X140974Y401356D01*
X141006Y401453D01*
X141034Y401550D01*
X141058Y401648D01*
X141079Y401747D01*
X141096Y401847D01*
X141109Y401948D01*
X141118Y402049D01*
X141124Y402150D01*
X141126Y402251D01*
X141126Y407670D01*
X141124Y407771D01*
X141118Y407872D01*
X141109Y407973D01*
X141096Y408074D01*
X141079Y408174D01*
X141058Y408273D01*
X141034Y408371D01*
X141006Y408468D01*
X140974Y408565D01*
X140939Y408660D01*
X140900Y408753D01*
X140858Y408845D01*
X140812Y408936D01*
X140763Y409025D01*
X140711Y409111D01*
X140655Y409196D01*
X140597Y409279D01*
X140535Y409359D01*
X140470Y409437D01*
X140403Y409513D01*
X140333Y409586D01*
X140260Y409656D01*
X140184Y409723D01*
X140106Y409788D01*
X140026Y409850D01*
X139943Y409908D01*
X139858Y409964D01*
X139772Y410016D01*
X139683Y410065D01*
X139592Y410111D01*
X139500Y410153D01*
X139407Y410192D01*
X139312Y410227D01*
X139215Y410259D01*
X139118Y410287D01*
X139020Y410311D01*
X138921Y410332D01*
X138821Y410349D01*
X138720Y410362D01*
X138619Y410371D01*
X138518Y410377D01*
X138417Y410379D01*
X133901Y410379D01*
X111667Y408573D02*
X108957Y408573D01*
X108957Y399542D01*
X114376Y399542D01*
X114494Y399544D01*
X114612Y399550D01*
X114730Y399559D01*
X114847Y399573D01*
X114964Y399590D01*
X115081Y399611D01*
X115196Y399636D01*
X115311Y399665D01*
X115425Y399698D01*
X115537Y399734D01*
X115648Y399774D01*
X115758Y399817D01*
X115867Y399864D01*
X115974Y399914D01*
X116079Y399969D01*
X116182Y400026D01*
X116283Y400087D01*
X116383Y400151D01*
X116480Y400218D01*
X116575Y400288D01*
X116667Y400362D01*
X116758Y400438D01*
X116845Y400518D01*
X116930Y400600D01*
X117012Y400685D01*
X117092Y400772D01*
X117168Y400863D01*
X117242Y400955D01*
X117312Y401050D01*
X117379Y401147D01*
X117443Y401247D01*
X117504Y401348D01*
X117561Y401451D01*
X117616Y401556D01*
X117666Y401663D01*
X117713Y401772D01*
X117756Y401882D01*
X117796Y401993D01*
X117832Y402105D01*
X117865Y402219D01*
X117894Y402334D01*
X117919Y402449D01*
X117940Y402566D01*
X117957Y402683D01*
X117971Y402800D01*
X117980Y402918D01*
X117986Y403036D01*
X117988Y403154D01*
X117988Y412186D01*
X117986Y412304D01*
X117980Y412422D01*
X117971Y412540D01*
X117957Y412657D01*
X117940Y412774D01*
X117919Y412891D01*
X117894Y413006D01*
X117865Y413121D01*
X117832Y413235D01*
X117796Y413347D01*
X117756Y413458D01*
X117713Y413568D01*
X117666Y413677D01*
X117616Y413784D01*
X117561Y413889D01*
X117504Y413992D01*
X117443Y414093D01*
X117379Y414193D01*
X117312Y414290D01*
X117242Y414385D01*
X117168Y414477D01*
X117092Y414568D01*
X117012Y414655D01*
X116930Y414740D01*
X116845Y414822D01*
X116758Y414902D01*
X116667Y414978D01*
X116575Y415052D01*
X116480Y415122D01*
X116383Y415189D01*
X116283Y415253D01*
X116182Y415314D01*
X116079Y415371D01*
X115974Y415426D01*
X115867Y415476D01*
X115758Y415523D01*
X115648Y415566D01*
X115537Y415606D01*
X115425Y415642D01*
X115311Y415675D01*
X115196Y415704D01*
X115081Y415729D01*
X114964Y415750D01*
X114847Y415767D01*
X114730Y415781D01*
X114612Y415790D01*
X114494Y415796D01*
X114376Y415798D01*
X108957Y415798D01*
X101315Y415798D02*
X101315Y399542D01*
X101315Y415798D02*
X96799Y415798D01*
X96668Y415796D01*
X96536Y415790D01*
X96405Y415781D01*
X96275Y415767D01*
X96144Y415750D01*
X96015Y415729D01*
X95886Y415705D01*
X95758Y415676D01*
X95630Y415644D01*
X95504Y415608D01*
X95379Y415569D01*
X95254Y415526D01*
X95132Y415479D01*
X95010Y415429D01*
X94890Y415375D01*
X94772Y415318D01*
X94656Y415257D01*
X94541Y415193D01*
X94428Y415126D01*
X94317Y415055D01*
X94209Y414981D01*
X94102Y414904D01*
X93998Y414824D01*
X93896Y414741D01*
X93797Y414656D01*
X93700Y414567D01*
X93606Y414475D01*
X93514Y414381D01*
X93425Y414284D01*
X93340Y414185D01*
X93257Y414083D01*
X93177Y413979D01*
X93100Y413872D01*
X93026Y413764D01*
X92955Y413653D01*
X92888Y413540D01*
X92824Y413425D01*
X92763Y413309D01*
X92706Y413191D01*
X92652Y413071D01*
X92602Y412949D01*
X92555Y412827D01*
X92512Y412702D01*
X92473Y412577D01*
X92437Y412451D01*
X92405Y412323D01*
X92376Y412195D01*
X92352Y412066D01*
X92331Y411937D01*
X92314Y411806D01*
X92300Y411676D01*
X92291Y411545D01*
X92285Y411413D01*
X92283Y411282D01*
X92284Y411282D02*
X92284Y404058D01*
X92283Y404058D02*
X92285Y403927D01*
X92291Y403795D01*
X92300Y403664D01*
X92314Y403534D01*
X92331Y403403D01*
X92352Y403274D01*
X92376Y403145D01*
X92405Y403017D01*
X92437Y402889D01*
X92473Y402763D01*
X92512Y402638D01*
X92555Y402513D01*
X92602Y402391D01*
X92652Y402269D01*
X92706Y402149D01*
X92763Y402031D01*
X92824Y401915D01*
X92888Y401800D01*
X92955Y401687D01*
X93026Y401576D01*
X93100Y401468D01*
X93177Y401361D01*
X93257Y401257D01*
X93340Y401155D01*
X93425Y401056D01*
X93514Y400959D01*
X93606Y400865D01*
X93700Y400773D01*
X93797Y400684D01*
X93896Y400599D01*
X93998Y400516D01*
X94102Y400436D01*
X94209Y400359D01*
X94317Y400285D01*
X94428Y400214D01*
X94541Y400147D01*
X94656Y400083D01*
X94772Y400022D01*
X94890Y399965D01*
X95010Y399911D01*
X95132Y399861D01*
X95254Y399814D01*
X95379Y399771D01*
X95504Y399732D01*
X95630Y399696D01*
X95758Y399664D01*
X95886Y399635D01*
X96015Y399611D01*
X96144Y399590D01*
X96275Y399573D01*
X96405Y399559D01*
X96536Y399550D01*
X96668Y399544D01*
X96799Y399542D01*
X101315Y399542D01*
X84503Y399542D02*
X84503Y415798D01*
X79084Y406767D01*
X73665Y415798D01*
X73665Y399542D01*
X65673Y399542D02*
X65673Y415798D01*
X61158Y415798D01*
X61025Y415796D01*
X60893Y415790D01*
X60761Y415780D01*
X60629Y415767D01*
X60497Y415749D01*
X60367Y415728D01*
X60236Y415703D01*
X60107Y415674D01*
X59979Y415641D01*
X59851Y415605D01*
X59725Y415565D01*
X59600Y415521D01*
X59476Y415473D01*
X59354Y415422D01*
X59233Y415367D01*
X59114Y415309D01*
X58996Y415247D01*
X58881Y415182D01*
X58767Y415113D01*
X58656Y415042D01*
X58547Y414966D01*
X58440Y414888D01*
X58335Y414807D01*
X58233Y414722D01*
X58133Y414635D01*
X58036Y414545D01*
X57941Y414452D01*
X57850Y414356D01*
X57761Y414258D01*
X57675Y414157D01*
X57592Y414053D01*
X57512Y413947D01*
X57436Y413839D01*
X57362Y413729D01*
X57292Y413616D01*
X57225Y413502D01*
X57162Y413385D01*
X57102Y413267D01*
X57045Y413147D01*
X56992Y413025D01*
X56943Y412902D01*
X56897Y412778D01*
X56855Y412652D01*
X56817Y412525D01*
X56782Y412397D01*
X56751Y412268D01*
X56724Y412139D01*
X56701Y412008D01*
X56681Y411877D01*
X56666Y411745D01*
X56654Y411613D01*
X56646Y411481D01*
X56642Y411348D01*
X56642Y411216D01*
X56646Y411083D01*
X56654Y410951D01*
X56666Y410819D01*
X56681Y410687D01*
X56701Y410556D01*
X56724Y410425D01*
X56751Y410296D01*
X56782Y410167D01*
X56817Y410039D01*
X56855Y409912D01*
X56897Y409786D01*
X56943Y409662D01*
X56992Y409539D01*
X57045Y409417D01*
X57102Y409297D01*
X57162Y409179D01*
X57225Y409062D01*
X57292Y408948D01*
X57362Y408835D01*
X57436Y408725D01*
X57512Y408617D01*
X57592Y408511D01*
X57675Y408407D01*
X57761Y408306D01*
X57850Y408208D01*
X57941Y408112D01*
X58036Y408019D01*
X58133Y407929D01*
X58233Y407842D01*
X58335Y407757D01*
X58440Y407676D01*
X58547Y407598D01*
X58656Y407522D01*
X58767Y407451D01*
X58881Y407382D01*
X58996Y407317D01*
X59114Y407255D01*
X59233Y407197D01*
X59354Y407142D01*
X59476Y407091D01*
X59600Y407043D01*
X59725Y406999D01*
X59851Y406959D01*
X59979Y406923D01*
X60107Y406890D01*
X60236Y406861D01*
X60367Y406836D01*
X60497Y406815D01*
X60629Y406797D01*
X60761Y406784D01*
X60893Y406774D01*
X61025Y406768D01*
X61158Y406766D01*
X61158Y406767D02*
X65673Y406767D01*
M02*
